<svg width="467" height="120" viewBox="0 0 467 120" fill="none" xmlns="http://www.w3.org/2000/svg">
<g clip-path="url(#clip0_179_307590)">
<rect width="467" height="120" rx="12" fill="#EDF7FB"/>
<rect width="467" height="14" transform="matrix(0.999999 1.74845e-07 0.00471617 0.99999 0 106)" fill="#38CAB5"/>
<path d="M431.523 122.56L448.921 107.024" stroke="white" stroke-width="1.5"/>
<path d="M372.482 122.562L389.887 107.024" stroke="white" stroke-width="1.5"/>
<path d="M313.447 122.562L330.852 107.024" stroke="white" stroke-width="1.5"/>
<path d="M254.404 122.562L271.809 107.024" stroke="white" stroke-width="1.5"/>
<path d="M195.365 122.57L212.77 107.031" stroke="white" stroke-width="1.5"/>
<path d="M136.318 122.57L153.723 107.031" stroke="white" stroke-width="1.5"/>
<path d="M77.283 122.578L94.6879 107.039" stroke="white" stroke-width="1.5"/>
<path d="M18.2401 122.57L35.6449 107.031" stroke="white" stroke-width="1.5"/>
<rect x="10" y="10" width="95" height="9" rx="4.5" fill="#F9FAFB"/>
<rect x="10" y="23" width="42" height="6" rx="3" fill="#F9FAFB"/>
<path d="M176.184 74.592C175.768 74.592 175.32 74.544 174.84 74.448C174.36 74.352 173.944 74.16 173.592 73.872C173.24 73.584 173.064 73.168 173.064 72.624C173.064 72.336 173.112 72.064 173.208 71.808C173.336 71.52 173.464 71.264 173.592 71.04C173.784 70.688 174.024 70.352 174.312 70.032C174.632 69.68 174.952 69.376 175.272 69.12C176.744 67.872 178.456 66.88 180.408 66.144C182.36 65.376 184.264 64.8 186.12 64.416C187.336 64.16 188.568 63.968 189.816 63.84C191.096 63.712 192.344 63.648 193.56 63.648C194.392 62.624 195.16 61.472 195.864 60.192C196.6 58.912 197.192 57.584 197.64 56.208C198.088 54.8 198.312 53.424 198.312 52.08C198.312 49.776 197.624 48.064 196.248 46.944C194.872 45.824 193.08 45.264 190.872 45.264C190.232 45.264 189.592 45.312 188.952 45.408C187.128 45.6 185.16 45.952 183.048 46.464C180.968 46.944 178.968 47.616 177.048 48.48C175.128 49.344 173.496 50.48 172.152 51.888C171.736 52.304 171.352 52.784 171 53.328C170.68 53.872 170.52 54.448 170.52 55.056C170.52 55.888 170.808 56.576 171.384 57.12C171.96 57.632 172.68 58.032 173.544 58.32C174.44 58.608 175.336 58.8 176.232 58.896C177.128 58.992 177.88 59.04 178.488 59.04C180.12 59.04 181.848 58.832 183.672 58.416C185.528 57.968 187.176 57.344 188.616 56.544C188.936 56.352 189.272 56.128 189.624 55.872C190.008 55.616 190.312 55.344 190.536 55.056C190.728 54.8 190.92 54.512 191.112 54.192C191.304 53.872 191.4 53.552 191.4 53.232C191.4 52.688 191.112 52.288 190.536 52.032C189.96 51.744 189.32 51.568 188.616 51.504C187.944 51.408 187.416 51.36 187.032 51.36C185.752 51.36 184.456 51.504 183.144 51.792C181.864 52.08 180.632 52.448 179.448 52.896C179.224 52.96 178.872 53.104 178.392 53.328C177.912 53.552 177.464 53.824 177.048 54.144C176.632 54.432 176.424 54.736 176.424 55.056C176.424 55.28 176.52 55.44 176.712 55.536C176.936 55.632 177.048 55.76 177.048 55.92C177.048 56.112 176.952 56.208 176.76 56.208C176.504 56.208 176.28 56.08 176.088 55.824C175.896 55.536 175.8 55.28 175.8 55.056V54.816C175.992 54.048 176.504 53.392 177.336 52.848C178.168 52.304 179.144 51.872 180.264 51.552C181.384 51.232 182.472 51.008 183.528 50.88C184.616 50.72 185.512 50.64 186.216 50.64C186.664 50.64 187.224 50.672 187.896 50.736C188.6 50.8 189.288 50.928 189.96 51.12C190.632 51.312 191.192 51.6 191.64 51.984C192.12 52.336 192.36 52.832 192.36 53.472C192.36 53.888 192.248 54.272 192.024 54.624C191.832 54.976 191.608 55.312 191.352 55.632C190.776 56.336 189.896 56.96 188.712 57.504C187.56 58.048 186.36 58.512 185.112 58.896C183.864 59.248 182.792 59.504 181.896 59.664C180.424 59.952 178.92 60.096 177.384 60.096C176.68 60.096 175.864 60.048 174.936 59.952C174.008 59.856 173.112 59.664 172.248 59.376C171.384 59.056 170.664 58.608 170.088 58.032C169.544 57.424 169.272 56.64 169.272 55.68C169.272 54.848 169.48 54.064 169.896 53.328C170.344 52.56 170.84 51.888 171.384 51.312C172.408 50.256 173.704 49.312 175.272 48.48C176.84 47.648 178.52 46.944 180.312 46.368C182.136 45.76 183.928 45.296 185.688 44.976C187.48 44.656 189.096 44.496 190.536 44.496C192.136 44.496 193.672 44.704 195.144 45.12C196.616 45.536 197.816 46.272 198.744 47.328C199.672 48.352 200.136 49.808 200.136 51.696C200.136 53.072 199.896 54.496 199.416 55.968C198.936 57.408 198.312 58.8 197.544 60.144C196.808 61.456 196.008 62.656 195.144 63.744C195.464 63.744 195.864 63.792 196.344 63.888C196.856 63.984 197.32 64.144 197.736 64.368C198.152 64.56 198.36 64.864 198.36 65.28C198.36 65.696 198.184 65.904 197.832 65.904C197.64 65.904 197.544 65.84 197.544 65.712V65.472C197.544 65.184 197.336 64.976 196.92 64.848C196.504 64.72 196.04 64.64 195.528 64.608C195.048 64.544 194.712 64.512 194.52 64.512C192.6 66.752 190.312 68.752 187.656 70.512C185.032 72.24 182.28 73.456 179.4 74.16C178.888 74.288 178.36 74.384 177.816 74.448C177.272 74.544 176.728 74.592 176.184 74.592ZM176.664 73.296C177.144 73.296 177.624 73.264 178.104 73.2C178.616 73.136 179.112 73.056 179.592 72.96C182.184 72.32 184.616 71.248 186.888 69.744C189.16 68.24 191.16 66.48 192.888 64.464C191.8 64.464 190.696 64.512 189.576 64.608C188.456 64.672 187.352 64.816 186.264 65.04C184.504 65.392 182.728 65.936 180.936 66.672C179.176 67.408 177.64 68.432 176.328 69.744C176.104 69.968 175.864 70.208 175.608 70.464C175.384 70.72 175.192 70.976 175.032 71.232C174.936 71.392 174.84 71.568 174.744 71.76C174.648 71.952 174.6 72.144 174.6 72.336C174.6 72.752 174.856 73.008 175.368 73.104C175.912 73.232 176.344 73.296 176.664 73.296ZM202.933 71.616C202.229 71.616 201.557 71.472 200.917 71.184C200.277 70.864 199.957 70.272 199.957 69.408C199.957 69.312 199.957 69.216 199.957 69.12C199.989 69.024 200.005 68.944 200.005 68.88C199.589 68.464 199.381 67.904 199.381 67.2C199.381 66.528 199.557 65.792 199.909 64.992C200.293 64.192 200.709 63.536 201.157 63.024C201.957 62.096 202.965 61.264 204.181 60.528C205.429 59.792 206.677 59.424 207.925 59.424C209.141 59.424 210.133 59.792 210.901 60.528C211.669 61.264 212.053 62.256 212.053 63.504C212.053 64.56 211.765 65.584 211.189 66.576C210.645 67.536 209.909 68.4 208.981 69.168C208.085 69.904 207.109 70.496 206.053 70.944C204.997 71.392 203.957 71.616 202.933 71.616ZM202.933 71.04C204.213 71.04 205.477 70.704 206.725 70.032C207.973 69.36 209.013 68.464 209.845 67.344C210.677 66.192 211.093 64.96 211.093 63.648C211.093 62.624 210.837 61.792 210.325 61.152C209.845 60.512 209.077 60.192 208.021 60.192C206.869 60.192 205.717 60.544 204.565 61.248C203.445 61.952 202.501 62.848 201.733 63.936C200.965 64.992 200.533 66.112 200.437 67.296C200.757 66.496 201.269 65.648 201.973 64.752C202.677 63.856 203.461 63.04 204.325 62.304C205.189 61.536 205.989 60.992 206.725 60.672C206.789 60.672 206.821 60.672 206.821 60.672C206.853 60.64 206.885 60.624 206.917 60.624C207.173 60.624 207.381 60.768 207.541 61.056C207.701 61.312 207.781 61.552 207.781 61.776V61.968C207.781 62.032 207.717 62.128 207.589 62.256C207.205 62.48 206.901 62.672 206.677 62.832C206.485 62.992 206.261 63.28 206.005 63.696C205.909 63.792 205.845 63.84 205.813 63.84C205.717 63.84 205.669 63.776 205.669 63.648C205.669 63.552 205.701 63.456 205.765 63.36C205.861 63.232 205.925 63.12 205.957 63.024C205.285 63.408 204.581 63.904 203.845 64.512C203.109 65.088 202.469 65.744 201.925 66.48C201.413 67.216 201.125 68.016 201.061 68.88C201.125 68.912 201.301 68.992 201.589 69.12C201.877 69.248 202.021 69.344 202.021 69.408C202.021 69.44 201.989 69.472 201.925 69.504C201.861 69.536 201.813 69.552 201.781 69.552C201.653 69.552 201.525 69.536 201.397 69.504C201.269 69.472 201.141 69.44 201.013 69.408C201.045 70.016 201.221 70.448 201.541 70.704C201.861 70.928 202.325 71.04 202.933 71.04ZM212.607 72.72C212.479 72.72 212.415 72.656 212.415 72.528C212.415 71.376 212.591 70.144 212.943 68.832C213.327 67.52 213.807 66.192 214.383 64.848C214.991 63.504 215.615 62.224 216.255 61.008C216.927 59.76 217.551 58.656 218.127 57.696C218.511 57.056 218.895 56.416 219.279 55.776C219.663 55.104 220.031 54.448 220.383 53.808C220.255 53.872 220.031 54 219.711 54.192C219.423 54.352 219.199 54.432 219.039 54.432C218.943 54.432 218.895 54.384 218.895 54.288C218.895 54.224 218.943 54.144 219.039 54.048C219.487 53.824 219.871 53.616 220.191 53.424C220.511 53.2 220.831 52.912 221.151 52.56C221.311 52.368 221.583 52.048 221.967 51.6C222.383 51.12 222.815 50.688 223.263 50.304C223.711 49.888 224.047 49.68 224.271 49.68C224.527 49.68 224.655 49.84 224.655 50.16C224.655 50.384 224.591 50.624 224.463 50.88C224.335 51.136 224.191 51.344 224.031 51.504C223.615 51.984 223.183 52.464 222.735 52.944C222.319 53.424 221.903 53.936 221.487 54.48C220.783 55.44 219.935 56.688 218.943 58.224C217.983 59.76 217.039 61.408 216.111 63.168C215.183 64.896 214.415 66.592 213.807 68.256C213.199 69.888 212.895 71.312 212.895 72.528C212.895 72.656 212.799 72.72 212.607 72.72ZM214.095 70.08C214.063 70.24 213.983 70.32 213.855 70.32C213.695 70.32 213.615 70.192 213.615 69.936C213.615 69.84 213.647 69.664 213.711 69.408C214.191 68.192 214.911 66.96 215.871 65.712C216.863 64.432 217.935 63.488 219.087 62.88C219.311 62.752 219.583 62.688 219.903 62.688C220.415 62.688 220.671 62.912 220.671 63.36C220.671 63.648 220.671 64.112 220.671 64.752C220.671 65.36 220.719 66.016 220.815 66.72C220.911 67.392 221.071 67.968 221.295 68.448C221.519 68.928 221.855 69.168 222.303 69.168C222.623 69.168 222.863 69.088 223.023 68.928C223.215 68.768 223.375 68.64 223.503 68.544H223.551C223.615 68.544 223.647 68.592 223.647 68.688C223.647 68.848 223.551 69.008 223.359 69.168C223.167 69.296 222.927 69.424 222.639 69.552C222.383 69.648 222.111 69.696 221.823 69.696C221.183 69.696 220.687 69.44 220.335 68.928C220.015 68.384 219.791 67.776 219.663 67.104C219.535 66.4 219.439 65.792 219.375 65.28C219.311 64.832 219.215 64.528 219.087 64.368C218.991 64.176 218.863 64.08 218.703 64.08C218.543 64.08 218.287 64.176 217.935 64.368C216.975 64.976 216.207 65.824 215.631 66.912C215.055 68 214.543 69.056 214.095 70.08ZM223.906 72.048C223.682 72.048 223.49 71.952 223.33 71.76C223.17 71.536 223.09 71.328 223.09 71.136C223.09 71.008 223.122 70.848 223.186 70.656C223.474 70.08 223.714 69.376 223.906 68.544C224.098 67.712 224.242 66.864 224.338 66C224.434 65.136 224.482 64.4 224.482 63.792C224.482 63.184 224.418 62.528 224.29 61.824C224.194 61.088 223.89 60.528 223.378 60.144C223.25 60.08 223.186 60.016 223.186 59.952C223.186 59.888 223.218 59.856 223.282 59.856C223.378 59.856 223.458 59.888 223.522 59.952C224.098 60.24 224.53 60.72 224.818 61.392C225.138 62.064 225.362 62.784 225.49 63.552C225.618 64.288 225.682 64.96 225.682 65.568C225.682 66.176 225.618 66.848 225.49 67.584C225.394 68.288 225.202 68.928 224.914 69.504C225.81 68.896 226.61 68.144 227.314 67.248C228.05 66.32 228.706 65.408 229.282 64.512C229.442 64.256 229.682 63.984 230.002 63.696C230.322 63.376 230.642 63.216 230.962 63.216C231.186 63.216 231.298 63.36 231.298 63.648C231.298 63.808 231.266 63.952 231.202 64.08C230.818 65.36 230.626 66.752 230.626 68.256C230.626 68.544 230.642 68.896 230.674 69.312C230.738 69.728 230.85 70.096 231.01 70.416C231.202 70.736 231.506 70.896 231.922 70.896C232.146 70.896 232.386 70.848 232.642 70.752C232.898 70.624 233.09 70.464 233.218 70.272C233.282 70.208 233.346 70.176 233.41 70.176C233.442 70.176 233.458 70.208 233.458 70.272C233.458 70.592 233.234 70.832 232.786 70.992C232.338 71.152 231.986 71.232 231.73 71.232C230.898 71.232 230.258 70.848 229.81 70.08C229.362 69.312 229.138 68.56 229.138 67.824C229.138 67.536 229.17 67.248 229.234 66.96C229.33 66.672 229.378 66.384 229.378 66.096C229.378 66.032 229.362 65.936 229.33 65.808C229.33 65.68 229.282 65.616 229.186 65.616C229.122 65.616 228.882 65.856 228.466 66.336C228.05 66.816 227.57 67.392 227.026 68.064C226.482 68.736 225.986 69.36 225.538 69.936C225.122 70.512 224.866 70.88 224.77 71.04C224.674 71.264 224.578 71.488 224.482 71.712C224.386 71.936 224.194 72.048 223.906 72.048ZM243.681 73.92H237.537C237.185 73.92 236.801 73.84 236.385 73.68C235.937 73.552 235.713 73.248 235.713 72.768C235.713 72.16 236.017 71.664 236.625 71.28C237.201 70.896 237.921 70.592 238.785 70.368C239.649 70.112 240.481 69.936 241.281 69.84C242.113 69.744 242.737 69.68 243.153 69.648C244.273 65.744 245.985 62.112 248.289 58.752C248.097 58.688 247.825 58.544 247.473 58.32C247.153 58.096 246.993 57.872 246.993 57.648C246.993 57.488 247.137 57.392 247.425 57.36C247.713 57.296 247.905 57.264 248.001 57.264C248.257 57.264 248.481 57.28 248.673 57.312C248.897 57.344 249.121 57.392 249.345 57.456C250.881 55.344 252.641 53.456 254.625 51.792C256.641 50.096 258.817 48.704 261.153 47.616C260.257 47.264 259.313 47.024 258.321 46.896C257.361 46.768 256.417 46.704 255.489 46.704C254.881 46.704 254.241 46.736 253.569 46.8C252.929 46.832 252.289 46.88 251.649 46.944C250.945 47.04 250.065 47.216 249.009 47.472C247.953 47.728 246.865 48.064 245.745 48.48C244.657 48.864 243.665 49.328 242.769 49.872C241.873 50.384 241.233 50.96 240.849 51.6C240.721 51.728 240.657 51.872 240.657 52.032C240.657 52.192 240.753 52.288 240.945 52.32C241.169 52.352 241.377 52.368 241.569 52.368C241.761 52.368 241.857 52.432 241.857 52.56C241.857 52.72 241.761 52.816 241.569 52.848C241.377 52.88 241.201 52.896 241.041 52.896C240.721 52.896 240.401 52.832 240.081 52.704C239.761 52.576 239.601 52.32 239.601 51.936C239.601 51.776 239.633 51.632 239.697 51.504C239.761 51.376 239.825 51.248 239.889 51.12C240.273 50.48 240.929 49.888 241.857 49.344C242.785 48.768 243.825 48.272 244.977 47.856C246.161 47.408 247.297 47.04 248.385 46.752C249.473 46.464 250.385 46.272 251.121 46.176C252.561 45.984 254.033 45.888 255.537 45.888C256.721 45.888 257.905 45.968 259.089 46.128C260.305 46.288 261.457 46.576 262.545 46.992C263.345 46.672 264.289 46.352 265.377 46.032C266.465 45.712 267.425 45.552 268.257 45.552C269.121 45.552 269.873 45.776 270.513 46.224C271.185 46.64 271.521 47.312 271.521 48.24C271.521 48.368 271.505 48.576 271.473 48.864C271.441 49.152 271.313 49.296 271.089 49.296C270.929 49.296 270.849 49.216 270.849 49.056C270.849 48.928 270.865 48.816 270.897 48.72C270.929 48.592 270.945 48.464 270.945 48.336C270.945 47.632 270.737 47.152 270.321 46.896C269.905 46.608 269.377 46.464 268.737 46.464C268.001 46.464 267.201 46.608 266.337 46.896C265.473 47.152 264.705 47.44 264.033 47.76C264.769 48.176 265.409 48.72 265.953 49.392C266.529 50.064 266.817 50.848 266.817 51.744C266.817 52.544 266.593 53.296 266.145 54C265.505 55.056 264.561 55.936 263.313 56.64C262.065 57.312 260.737 57.84 259.329 58.224C257.953 58.608 256.689 58.896 255.537 59.088C256.305 59.344 257.233 59.68 258.321 60.096C259.441 60.512 260.593 61.008 261.777 61.584C262.961 62.16 264.065 62.816 265.089 63.552C266.113 64.288 266.945 65.088 267.585 65.952C268.225 66.816 268.545 67.744 268.545 68.736C268.545 69.696 268.257 70.496 267.681 71.136C267.137 71.744 266.465 72.192 265.665 72.48C264.865 72.8 264.081 72.96 263.313 72.96C262.129 72.96 260.737 72.784 259.137 72.432C257.569 72.112 255.697 71.792 253.521 71.472C251.345 71.12 248.753 70.944 245.745 70.944C245.425 70.944 245.073 70.944 244.689 70.944C244.337 70.944 243.985 70.976 243.633 71.04C243.601 71.2 243.569 71.376 243.537 71.568C243.505 71.76 243.489 71.968 243.489 72.192C243.489 72.48 243.585 72.72 243.777 72.912C244.001 73.104 244.113 73.328 244.113 73.584C244.113 73.808 243.969 73.92 243.681 73.92ZM253.953 58.608C254.785 58.512 255.809 58.32 257.025 58.032C258.241 57.712 259.441 57.28 260.625 56.736C261.841 56.192 262.849 55.52 263.649 54.72C264.481 53.92 264.897 52.992 264.897 51.936C264.897 51.168 264.689 50.48 264.273 49.872C263.857 49.264 263.329 48.752 262.689 48.336C260.449 49.456 258.305 50.832 256.257 52.464C254.241 54.096 252.433 55.856 250.833 57.744C251.377 57.872 251.905 58.016 252.417 58.176C252.929 58.304 253.441 58.448 253.953 58.608ZM248.721 58.128L248.769 58.08C248.705 58.048 248.641 58.016 248.577 57.984C248.513 57.952 248.449 57.936 248.385 57.936C248.385 58 248.449 58.064 248.577 58.128H248.721ZM251.505 58.704C251.057 58.544 250.641 58.448 250.257 58.416L250.113 58.56C250.369 58.592 250.609 58.624 250.833 58.656C251.057 58.656 251.281 58.672 251.505 58.704ZM262.449 72.144C263.473 72.144 264.385 71.856 265.185 71.28C265.985 70.704 266.385 69.872 266.385 68.784C266.385 67.792 266.081 66.864 265.473 66C264.865 65.136 264.065 64.352 263.073 63.648C262.081 62.944 261.009 62.32 259.857 61.776C258.705 61.2 257.585 60.72 256.497 60.336C255.441 59.92 254.513 59.584 253.713 59.328C253.393 59.36 253.089 59.392 252.801 59.424C252.513 59.424 252.225 59.424 251.937 59.424C251.553 59.424 251.169 59.408 250.785 59.376C250.401 59.344 250.001 59.28 249.585 59.184C248.369 60.752 247.281 62.416 246.321 64.176C245.361 65.904 244.593 67.728 244.017 69.648H244.353C246.273 69.648 248.161 69.776 250.017 70.032C251.873 70.288 253.617 70.576 255.249 70.896C256.881 71.216 258.321 71.504 259.569 71.76C260.817 72.016 261.777 72.144 262.449 72.144ZM240.369 73.296C240.689 73.296 241.089 73.248 241.569 73.152C242.049 73.056 242.337 72.8 242.433 72.384C242.497 72.16 242.545 71.952 242.577 71.76C242.641 71.536 242.705 71.312 242.769 71.088C242.577 71.088 242.193 71.136 241.617 71.232C241.073 71.296 240.481 71.392 239.841 71.52C239.201 71.648 238.657 71.808 238.209 72C237.729 72.16 237.489 72.352 237.489 72.576C237.489 72.768 237.697 72.912 238.113 73.008C238.529 73.104 238.977 73.168 239.457 73.2C239.937 73.264 240.241 73.296 240.369 73.296ZM271.766 71.376C271.542 71.376 271.334 71.264 271.142 71.04C270.95 70.816 270.854 70.592 270.854 70.368C270.854 70.272 270.886 70.16 270.95 70.032C271.302 69.04 271.59 67.904 271.814 66.624C272.038 65.312 272.15 64.144 272.15 63.12C272.15 62.512 272.086 61.872 271.958 61.2C271.862 60.496 271.558 59.936 271.046 59.52C270.95 59.52 270.902 59.456 270.902 59.328C270.902 59.296 270.934 59.28 270.998 59.28C271.094 59.28 271.174 59.312 271.238 59.376C271.974 59.824 272.438 60.56 272.63 61.584C272.854 62.576 272.966 63.456 272.966 64.224C272.966 64.96 272.918 65.712 272.822 66.48C272.726 67.248 272.598 68 272.438 68.736V68.976C272.438 68.976 272.438 69.008 272.438 69.072C272.47 69.104 272.502 69.12 272.534 69.12C272.598 69.12 272.646 69.088 272.678 69.024C272.71 68.96 272.742 68.912 272.774 68.88C273.254 68.144 273.654 67.344 273.974 66.48C274.326 65.584 274.662 64.72 274.982 63.888C275.046 63.632 275.174 63.36 275.366 63.072C275.59 62.752 275.862 62.592 276.182 62.592C276.438 62.592 276.582 62.72 276.614 62.976C276.678 63.2 276.71 63.392 276.71 63.552C276.71 63.936 276.79 64.272 276.95 64.56C277.11 64.848 277.19 65.04 277.19 65.136C277.19 65.264 277.11 65.344 276.95 65.376C276.79 65.376 276.678 65.376 276.614 65.376C276.39 65.376 276.166 65.328 275.942 65.232C275.75 65.104 275.542 65.04 275.318 65.04C275.222 65.04 275.126 65.088 275.03 65.184C274.838 65.504 274.662 65.84 274.502 66.192C274.342 66.544 274.182 66.88 274.022 67.2C273.798 67.712 273.542 68.24 273.254 68.784C272.998 69.328 272.758 69.872 272.534 70.416C272.47 70.608 272.406 70.8 272.342 70.992C272.31 71.152 272.182 71.28 271.958 71.376H271.766ZM283.728 72.768C283.056 72.768 282.656 72.448 282.528 71.808C282.4 71.168 282.336 70.592 282.336 70.08C282.336 69.184 282.368 68.304 282.432 67.44C282.528 66.544 282.608 65.648 282.672 64.752C282.544 65.2 282.352 65.824 282.096 66.624C281.872 67.424 281.584 68.24 281.232 69.072C280.88 69.904 280.48 70.608 280.032 71.184C279.584 71.76 279.072 72.048 278.496 72.048C278.112 72.048 277.824 71.888 277.632 71.568C277.44 71.248 277.312 70.88 277.248 70.464C277.216 70.016 277.2 69.664 277.2 69.408C277.2 67.904 277.504 66.352 278.112 64.752C278.72 63.152 279.44 61.76 280.272 60.576C280.272 60.096 280.448 59.6 280.8 59.088C281.184 58.576 281.632 58.112 282.144 57.696C282.656 57.28 283.104 56.992 283.488 56.832C283.68 56.768 283.856 56.736 284.016 56.736C284.176 56.736 284.288 56.8 284.352 56.928C284.448 57.056 284.496 57.2 284.496 57.36C284.496 57.488 284.48 57.632 284.448 57.792C284.416 57.92 284.352 58.032 284.256 58.128C283.968 58.416 283.68 58.672 283.392 58.896C283.136 59.12 282.864 59.408 282.576 59.76C281.936 60.528 281.264 61.456 280.56 62.544C279.888 63.632 279.312 64.768 278.832 65.952C278.352 67.104 278.112 68.192 278.112 69.216C278.112 69.344 278.128 69.6 278.16 69.984C278.192 70.336 278.256 70.672 278.352 70.992C278.48 71.28 278.656 71.424 278.88 71.424C279.168 71.424 279.424 71.264 279.648 70.944C279.904 70.592 280.096 70.304 280.224 70.08C280.576 69.44 280.912 68.64 281.232 67.68C281.552 66.72 281.84 65.744 282.096 64.752C282.352 63.76 282.544 62.912 282.672 62.208C282.736 61.984 282.784 61.776 282.816 61.584C282.848 61.36 282.88 61.136 282.912 60.912C282.944 60.816 282.96 60.704 282.96 60.576C282.96 60.416 282.976 60.272 283.008 60.144C283.072 59.952 283.216 59.856 283.44 59.856C283.6 59.856 283.744 59.904 283.872 60C284 60.096 284.064 60.224 284.064 60.384V60.48C284.064 61.568 283.984 62.64 283.824 63.696C283.696 64.752 283.632 65.84 283.632 66.96C283.632 67.6 283.648 68.272 283.68 68.976C283.712 69.68 283.792 70.368 283.92 71.04C283.92 71.136 283.952 71.28 284.016 71.472C284.08 71.664 284.192 71.76 284.352 71.76C284.448 71.76 284.544 71.728 284.64 71.664C284.768 71.568 284.848 71.504 284.88 71.472C285.68 70.8 286.368 69.936 286.944 68.88C287.52 67.792 287.984 66.768 288.336 65.808C288.432 65.648 288.512 65.568 288.576 65.568C288.672 65.568 288.72 65.648 288.72 65.808V66C288.56 66.544 288.256 67.28 287.808 68.208C287.36 69.104 286.864 69.968 286.32 70.8C285.808 71.6 285.312 72.144 284.832 72.432C284.512 72.656 284.144 72.768 283.728 72.768ZM288.074 72.96C287.946 72.96 287.866 72.768 287.834 72.384C287.802 72 287.786 71.776 287.786 71.712C287.786 70.56 288.074 69.184 288.65 67.584C289.258 65.984 289.994 64.336 290.858 62.64C291.722 60.944 292.586 59.328 293.45 57.792C294.346 56.224 295.098 54.912 295.706 53.856C295.578 53.952 295.338 54.08 294.986 54.24C294.666 54.4 294.442 54.48 294.314 54.48C294.218 54.48 294.17 54.432 294.17 54.336C294.17 54.304 294.234 54.224 294.362 54.096C294.714 53.968 295.082 53.76 295.466 53.472C296.202 52.928 296.842 52.32 297.386 51.648C297.962 50.944 298.618 50.352 299.354 49.872C299.546 49.744 299.69 49.68 299.786 49.68C300.042 49.68 300.17 49.84 300.17 50.16C300.17 50.384 300.106 50.624 299.978 50.88C299.85 51.136 299.706 51.344 299.546 51.504C298.554 52.56 297.482 53.888 296.33 55.488C295.178 57.088 294.074 58.8 293.018 60.624C291.962 62.448 291.034 64.24 290.234 66C289.466 67.76 288.938 69.36 288.65 70.8C289.258 70 289.93 69.296 290.666 68.688C291.402 68.08 292.154 67.472 292.922 66.864C292.858 66.544 292.794 66.224 292.73 65.904C292.666 65.584 292.634 65.28 292.634 64.992C292.634 64.96 292.666 64.944 292.73 64.944C292.89 64.944 293.13 65.072 293.45 65.328C293.802 65.552 293.978 65.776 293.978 66C294.714 65.456 295.45 64.944 296.186 64.464C296.922 63.952 297.674 63.472 298.442 63.024C298.282 63.056 297.978 63.136 297.53 63.264C297.114 63.392 296.698 63.52 296.282 63.648C295.866 63.744 295.578 63.792 295.418 63.792C295.386 63.792 295.338 63.792 295.274 63.792C295.21 63.76 295.178 63.712 295.178 63.648C295.178 63.584 295.258 63.52 295.418 63.456C295.578 63.424 295.738 63.392 295.898 63.36C296.058 63.328 296.202 63.296 296.33 63.264C296.778 63.104 297.322 62.928 297.962 62.736C298.602 62.512 299.146 62.4 299.594 62.4C299.722 62.4 299.802 62.464 299.834 62.592C299.866 62.72 299.882 62.832 299.882 62.928C299.882 63.088 299.85 63.28 299.786 63.504C299.722 63.728 299.61 63.904 299.45 64.032C298.81 64.544 297.946 64.976 296.858 65.328C295.77 65.648 294.826 66.064 294.026 66.576C294.058 66.864 294.106 67.328 294.17 67.968C294.234 68.576 294.346 69.216 294.506 69.888C294.666 70.528 294.89 71.088 295.178 71.568C295.466 72.016 295.818 72.24 296.234 72.24C296.522 72.24 296.778 72.144 297.002 71.952C297.226 71.728 297.402 71.504 297.53 71.28C297.53 71.184 297.562 71.136 297.626 71.136C297.69 71.136 297.722 71.184 297.722 71.28C297.722 71.6 297.546 71.904 297.194 72.192C296.874 72.512 296.554 72.672 296.234 72.672C295.722 72.672 295.274 72.464 294.89 72.048C294.538 71.664 294.234 71.184 293.978 70.608C293.754 70 293.562 69.408 293.402 68.832C293.242 68.256 293.13 67.792 293.066 67.44C292.33 67.984 291.514 68.688 290.618 69.552C289.722 70.416 289.002 71.216 288.458 71.952C288.458 72.08 288.442 72.272 288.41 72.528C288.378 72.816 288.266 72.96 288.074 72.96Z" fill="#606060"/>
</g>
<defs>
<clipPath id="clip0_179_307590">
<rect width="467" height="120" rx="12" fill="white"/>
</clipPath>
</defs>
</svg>
