<svg width="467" height="120" viewBox="0 0 467 120" fill="none" xmlns="http://www.w3.org/2000/svg">
<g clip-path="url(#clip0_179_307608)">
<rect width="467" height="120" rx="12" fill="#EDF7FB"/>
<rect width="467" height="14" transform="matrix(0.999999 1.74845e-07 0.00471617 0.99999 0 106)" fill="#38CAB5"/>
<path d="M431.523 122.56L448.921 107.024" stroke="white" stroke-width="1.5"/>
<path d="M372.482 122.562L389.887 107.024" stroke="white" stroke-width="1.5"/>
<path d="M313.447 122.562L330.852 107.024" stroke="white" stroke-width="1.5"/>
<path d="M254.404 122.562L271.809 107.024" stroke="white" stroke-width="1.5"/>
<path d="M195.365 122.57L212.77 107.031" stroke="white" stroke-width="1.5"/>
<path d="M136.318 122.57L153.723 107.031" stroke="white" stroke-width="1.5"/>
<path d="M77.283 122.578L94.6879 107.039" stroke="white" stroke-width="1.5"/>
<path d="M18.2401 122.57L35.6449 107.031" stroke="white" stroke-width="1.5"/>
<rect x="10" y="10" width="95" height="9" rx="4.5" fill="#F9FAFB"/>
<rect x="10" y="23" width="42" height="6" rx="3" fill="#F9FAFB"/>
<path opacity="0.7" d="M288 39.3906H187.34V88.4742H288V39.3906Z" fill="#E6E6E6"/>
<path d="M280.684 32.0312H180.023V81.1149H280.684V32.0312Z" fill="white"/>
<path d="M196.375 55.6016C200.396 55.6016 203.656 52.3225 203.656 48.2774C203.656 44.2323 200.396 40.9531 196.375 40.9531C192.354 40.9531 189.094 44.2323 189.094 48.2774C189.094 52.3225 192.354 55.6016 196.375 55.6016Z" fill="#38CAB5"/>
<path d="M195.831 50.7395C195.691 50.7397 195.554 50.6925 195.442 50.6049L195.435 50.5995L193.973 49.433C193.836 49.3236 193.747 49.1621 193.724 48.984C193.702 48.8059 193.748 48.6258 193.853 48.4833C193.958 48.3407 194.113 48.2474 194.283 48.2238C194.454 48.2002 194.627 48.2483 194.764 48.3574L195.711 49.1148L197.95 46.0699C198.001 45.9993 198.066 45.9401 198.14 45.8956C198.214 45.8511 198.295 45.8222 198.38 45.8105C198.465 45.7989 198.551 45.8047 198.633 45.8277C198.715 45.8507 198.793 45.8904 198.86 45.9445L198.861 45.9446L198.847 45.9647L198.861 45.9446C198.998 46.0541 199.087 46.2156 199.109 46.3937C199.132 46.5717 199.086 46.7519 198.981 46.8945L196.348 50.4744C196.287 50.5569 196.209 50.6236 196.119 50.6695C196.03 50.7153 195.931 50.739 195.831 50.7387L195.831 50.7395Z" fill="white"/>
<path d="M213.19 43.3906C212.868 43.3906 212.56 43.5192 212.332 43.7482C212.104 43.9771 211.977 44.2876 211.977 44.6113C211.977 44.9351 212.104 45.2456 212.332 45.4745C212.56 45.7034 212.868 45.832 213.19 45.832H270.399C270.72 45.8312 271.028 45.7023 271.255 45.4734C271.482 45.2446 271.61 44.9346 271.61 44.6113C271.61 44.2881 271.482 43.9781 271.255 43.7492C271.028 43.5204 270.72 43.3914 270.399 43.3906H213.19Z" fill="#E6E6E6"/>
<path d="M213.194 50.7188C213.035 50.7182 212.877 50.7493 212.729 50.8102C212.582 50.8712 212.447 50.9608 212.334 51.0739C212.221 51.187 212.131 51.3215 212.07 51.4696C212.009 51.6176 211.977 51.7764 211.977 51.9369C211.976 52.0973 212.007 52.2563 212.068 52.4046C212.129 52.5529 212.218 52.6878 212.331 52.8014C212.443 52.915 212.577 53.0051 212.724 53.0667C212.872 53.1283 213.03 53.16 213.189 53.1602H237.811C237.971 53.1602 238.129 53.1286 238.276 53.0673C238.423 53.0059 238.557 52.916 238.669 52.8026C238.782 52.6893 238.872 52.5547 238.933 52.4066C238.994 52.2585 239.025 52.0998 239.025 51.9395C239.025 51.7792 238.994 51.6204 238.933 51.4723C238.872 51.3242 238.782 51.1896 238.669 51.0763C238.557 50.9629 238.423 50.873 238.276 50.8117C238.129 50.7503 237.971 50.7188 237.811 50.7188H213.194Z" fill="#E6E6E6"/>
<path d="M190.791 62.4219C189.868 62.4219 189.117 62.9695 189.117 63.6426C189.117 64.3156 189.868 64.8633 190.791 64.8633H269.722C270.645 64.8633 271.397 64.3156 271.397 63.6426C271.397 62.9696 270.645 62.4219 269.722 62.4219H190.791Z" fill="#E6E6E6"/>
<path d="M190.791 69.75C189.868 69.75 189.117 70.2977 189.117 70.9707C189.117 71.6437 189.868 72.1914 190.791 72.1914H251.553C252.477 72.1914 253.228 71.6437 253.228 70.9707C253.228 70.2977 252.477 69.75 251.553 69.75H190.791Z" fill="#E6E6E6"/>
<path d="M281.708 82.1431H179V31H281.708V82.1431ZM181.047 80.0836H279.66V33.0595H181.047V80.0836Z" fill="#DCDCDC"/>
</g>
<defs>
<clipPath id="clip0_179_307608">
<rect width="467" height="120" rx="12" fill="white"/>
</clipPath>
</defs>
</svg>
