<svg width="32" height="32" viewBox="0 0 32 32" fill="none" xmlns="http://www.w3.org/2000/svg">
<path d="M15.9974 2.66406C8.65073 2.66406 2.66406 8.65073 2.66406 15.9974C2.66406 23.3441 8.65073 29.3307 15.9974 29.3307C23.3441 29.3307 29.3307 23.3441 29.3307 15.9974C29.3307 8.65073 23.3441 2.66406 15.9974 2.66406ZM14.9974 10.6641C14.9974 10.1174 15.4507 9.66406 15.9974 9.66406C16.5441 9.66406 16.9974 10.1174 16.9974 10.6641V17.3307C16.9974 17.8774 16.5441 18.3307 15.9974 18.3307C15.4507 18.3307 14.9974 17.8774 14.9974 17.3307V10.6641ZM17.2241 21.8374C17.1574 22.0107 17.0641 22.1441 16.9441 22.2774C16.8107 22.3974 16.6641 22.4907 16.5041 22.5574C16.3441 22.6241 16.1707 22.6641 15.9974 22.6641C15.8241 22.6641 15.6507 22.6241 15.4907 22.5574C15.3307 22.4907 15.1841 22.3974 15.0507 22.2774C14.9307 22.1441 14.8374 22.0107 14.7707 21.8374C14.7041 21.6774 14.6641 21.5041 14.6641 21.3307C14.6641 21.1574 14.7041 20.9841 14.7707 20.8241C14.8374 20.6641 14.9307 20.5174 15.0507 20.3841C15.1841 20.2641 15.3307 20.1707 15.4907 20.1041C15.8107 19.9707 16.1841 19.9707 16.5041 20.1041C16.6641 20.1707 16.8107 20.2641 16.9441 20.3841C17.0641 20.5174 17.1574 20.6641 17.2241 20.8241C17.2907 20.9841 17.3307 21.1574 17.3307 21.3307C17.3307 21.5041 17.2907 21.6774 17.2241 21.8374Z" fill="#FFC20E"/>
</svg>
