<svg width="24" height="24" viewBox="0 0 24 24" fill="none" xmlns="http://www.w3.org/2000/svg">
<path d="M7.5 18.4297V17.9297H7C5.61362 17.9297 4.49716 17.4697 3.72855 16.7011C2.95994 15.9325 2.5 14.8161 2.5 13.4297V7.42969C2.5 6.04331 2.95994 4.92685 3.72855 4.15824C4.49716 3.38963 5.61362 2.92969 7 2.92969H17C18.3864 2.92969 19.5028 3.38963 20.2714 4.15824C21.0401 4.92685 21.5 6.04331 21.5 7.42969V13.4297C21.5 14.8161 21.0401 15.9325 20.2714 16.7011C19.5028 17.4697 18.3864 17.9297 17 17.9297H13H12.8489L12.7231 18.0134L8.27308 20.9734L8.27306 20.9733L8.26833 20.9766C7.94792 21.195 7.5 20.9673 7.5 20.5597V18.4297ZM13.5374 10.8657L13.5374 10.8657L13.5404 10.8636L13.55 10.8571C13.8726 10.6387 14.91 9.93652 14.91 8.52969C14.91 6.92354 13.6061 5.61969 12 5.61969C10.3939 5.61969 9.09 6.92354 9.09 8.52969C9.09 9.21583 9.65386 9.77969 10.34 9.77969C11.0261 9.77969 11.59 9.21583 11.59 8.52969C11.59 8.30583 11.7761 8.11969 12 8.11969C12.2239 8.11969 12.41 8.30583 12.41 8.52969C12.41 8.55563 12.4071 8.56502 12.4068 8.56594C12.4066 8.56678 12.4062 8.56775 12.4054 8.56945C12.4045 8.57125 12.4023 8.57532 12.3975 8.58191C12.374 8.61473 12.3112 8.67979 12.1401 8.79539L12.1401 8.79538L12.1367 8.79767C12.1301 8.80223 12.1231 8.80701 12.1158 8.812C11.7762 9.04477 10.75 9.74815 10.75 11.1597V11.3697C10.75 12.0021 11.2291 12.5307 11.8414 12.6095C11.2183 12.6877 10.75 13.2203 10.75 13.8497C10.75 14.5315 11.2995 15.0997 12 15.0997C12.7005 15.0997 13.25 14.5315 13.25 13.8497C13.25 13.2203 12.7817 12.6877 12.1586 12.6095C12.7709 12.5307 13.25 12.0021 13.25 11.3697V11.1597C13.25 11.1256 13.2536 11.1113 13.2548 11.1074C13.2554 11.1051 13.2568 11.1001 13.2653 11.0882C13.2896 11.0543 13.3546 10.9875 13.5374 10.8657Z" fill="#35456D" stroke="#35456D"/>
</svg>
