<svg width="35" height="34" viewBox="0 0 35 34" fill="none" xmlns="http://www.w3.org/2000/svg">
<path d="M17.2656 15.416V22.7829" stroke="white" stroke-width="1.5" stroke-linecap="round" stroke-linejoin="round"/>
<path d="M20.9649 19.0996H13.5645" stroke="white" stroke-width="1.5" stroke-linecap="round" stroke-linejoin="round"/>
<path d="M28.8939 9.62891H5.63533C5.05145 9.62891 4.57812 10.1001 4.57812 10.6813V27.52C4.57812 28.1013 5.05145 28.5725 5.63533 28.5725H28.8939C29.4778 28.5725 29.9511 28.1013 29.9511 27.52V10.6813C29.9511 10.1001 29.4778 9.62891 28.8939 9.62891Z" stroke="white" stroke-width="1.5" stroke-linecap="round" stroke-linejoin="round"/>
<path d="M22.5506 9.62765V7.52281C22.5506 6.96457 22.3278 6.4292 21.9313 6.03446C21.5348 5.63973 20.997 5.41797 20.4362 5.41797H14.0929C13.5322 5.41797 12.9943 5.63973 12.5978 6.03446C12.2013 6.4292 11.9785 6.96457 11.9785 7.52281V9.62765" stroke="white" stroke-width="1.5" stroke-linecap="round" stroke-linejoin="round"/>
</svg>
