<svg
      width="46"
      height="46"
      viewBox="0 0 46 46"
      fill="none"
      xmlns="http://www.w3.org/2000/svg"
    >
      <path
        fillRule="evenodd"
        clipRule="evenodd"
        d="M26.8307 3.83594H11.4974C10.4807 3.83594 9.50571 4.23981 8.78682 4.95869C8.06793 5.67758 7.66406 6.65261 7.66406 7.66927V38.3359C7.66406 39.3526 8.06793 40.3276 8.78682 41.0465C9.50571 41.7654 10.4807 42.1693 11.4974 42.1693H34.4974C35.5141 42.1693 36.4891 41.7654 37.208 41.0465C37.9269 40.3276 38.3307 39.3526 38.3307 38.3359V15.3359L26.8307 3.83594ZM26.8307 17.2526H24.9141V7.66927L34.4974 17.2526H26.8307Z"
        fill="#0072C6"
      />
      <path
        d="M16.2957 34.0099C15.8851 34.0099 15.5175 33.9044 15.1931 33.6934C14.8687 33.4824 14.6123 33.1761 14.424 32.7745C14.2357 32.3729 14.1415 31.8851 14.1415 31.3111C14.1415 30.7303 14.2368 30.2403 14.4274 29.841C14.6202 29.4394 14.88 29.1365 15.2067 28.9323C15.5334 28.7259 15.8976 28.6226 16.2991 28.6226C16.6054 28.6226 16.8573 28.6748 17.0546 28.7792C17.252 28.8813 17.4086 29.0049 17.5243 29.1501C17.64 29.2931 17.7296 29.4281 17.7931 29.5551H17.8442V26.9483H19.0795V33.918H17.868V33.0944H17.7931C17.7296 33.2215 17.6377 33.3564 17.5175 33.4994C17.3972 33.64 17.2384 33.7603 17.041 33.8601C16.8437 33.9599 16.5952 34.0099 16.2957 34.0099ZM16.6395 32.9991C16.9004 32.9991 17.1227 32.9288 17.3065 32.7881C17.4903 32.6452 17.6298 32.4467 17.7251 32.1926C17.8204 31.9385 17.868 31.6424 17.868 31.3043C17.868 30.9663 17.8204 30.6725 17.7251 30.4229C17.6321 30.1733 17.4937 29.9794 17.3099 29.841C17.1284 29.7026 16.9049 29.6334 16.6395 29.6334C16.3649 29.6334 16.1358 29.7048 15.952 29.8478C15.7682 29.9907 15.6299 30.1881 15.5368 30.4399C15.4438 30.6918 15.3973 30.9799 15.3973 31.3043C15.3973 31.631 15.4438 31.9226 15.5368 32.1789C15.6321 32.4331 15.7717 32.6338 15.9554 32.7813C16.1415 32.9265 16.3695 32.9991 16.6395 32.9991ZM22.6724 34.0201C22.162 34.0201 21.7195 33.9078 21.3452 33.6831C20.9708 33.4585 20.6804 33.1443 20.474 32.7405C20.2698 32.3366 20.1677 31.8647 20.1677 31.3248C20.1677 30.7848 20.2698 30.3117 20.474 29.9056C20.6804 29.4995 20.9708 29.1842 21.3452 28.9595C21.7195 28.7349 22.162 28.6226 22.6724 28.6226C23.1829 28.6226 23.6253 28.7349 23.9997 28.9595C24.374 29.1842 24.6633 29.4995 24.8675 29.9056C25.0739 30.3117 25.1772 30.7848 25.1772 31.3248C25.1772 31.8647 25.0739 32.3366 24.8675 32.7405C24.6633 33.1443 24.374 33.4585 23.9997 33.6831C23.6253 33.9078 23.1829 34.0201 22.6724 34.0201ZM22.6792 33.0331C22.956 33.0331 23.1874 32.9571 23.3735 32.8051C23.5595 32.6509 23.6979 32.4444 23.7887 32.1858C23.8817 31.9271 23.9282 31.639 23.9282 31.3213C23.9282 31.0014 23.8817 30.7122 23.7887 30.4535C23.6979 30.1926 23.5595 29.985 23.3735 29.8308C23.1874 29.6765 22.956 29.5993 22.6792 29.5993C22.3956 29.5993 22.1597 29.6765 21.9714 29.8308C21.7853 29.985 21.6458 30.1926 21.5528 30.4535C21.462 30.7122 21.4167 31.0014 21.4167 31.3213C21.4167 31.639 21.462 31.9271 21.5528 32.1858C21.6458 32.4444 21.7853 32.6509 21.9714 32.8051C22.1597 32.9571 22.3956 33.0331 22.6792 33.0331ZM28.5029 34.0201C27.9811 34.0201 27.533 33.9055 27.1587 33.6763C26.7866 33.4472 26.4996 33.1307 26.2977 32.7269C26.098 32.3207 25.9982 31.8534 25.9982 31.3248C25.9982 30.7939 26.1003 30.3254 26.3045 29.9192C26.5087 29.5109 26.7968 29.1932 27.1689 28.9664C27.5432 28.7372 27.9856 28.6226 28.4961 28.6226C28.9204 28.6226 29.2959 28.7009 29.6226 28.8575C29.9515 29.0117 30.2136 29.2307 30.4087 29.5143C30.6038 29.7956 30.715 30.1246 30.7422 30.5012H29.5647C29.5171 30.2493 29.4036 30.0395 29.2244 29.8716C29.0474 29.7014 28.8103 29.6164 28.5131 29.6164C28.2613 29.6164 28.0401 29.6844 27.8495 29.8205C27.6589 29.9544 27.5103 30.1473 27.4037 30.3991C27.2993 30.6509 27.2471 30.9527 27.2471 31.3043C27.2471 31.6605 27.2993 31.9668 27.4037 32.2232C27.5081 32.4773 27.6544 32.6735 27.8427 32.8119C28.0333 32.9481 28.2568 33.0161 28.5131 33.0161C28.6946 33.0161 28.8568 32.9821 28.9998 32.914C29.145 32.8437 29.2664 32.7427 29.3639 32.6112C29.4615 32.4796 29.5284 32.3196 29.5647 32.1313H30.7422C30.7127 32.5011 30.6038 32.829 30.4155 33.1148C30.2272 33.3984 29.9708 33.6208 29.6464 33.7818C29.3219 33.9407 28.9408 34.0201 28.5029 34.0201Z"
        fill="white"
      />
    </svg>