<svg width="144" height="36" viewBox="0 0 144 36" fill="none" xmlns="http://www.w3.org/2000/svg">
<path opacity="0.25" d="M13.8516 36.0005C21.5017 36.0005 27.7033 35.4504 27.7033 34.7717C27.7033 34.0931 21.5017 33.543 13.8516 33.543C6.20159 33.543 0 34.0931 0 34.7717C0 35.4504 6.20159 36.0005 13.8516 36.0005Z" fill="#171425"/>
<path d="M16.4325 2.34339C16.1944 1.65939 15.7466 1.06596 15.1513 0.645874C14.5561 0.22579 13.8432 0 13.112 0C12.3809 0 11.668 0.22579 11.0728 0.645874C10.4775 1.06596 10.0296 1.65939 9.79157 2.34339L7.93548 6.51854L7.61056 7.25403L6.13281 10.5792C10.4931 10.4101 14.7278 9.08691 18.3954 6.74756L16.4325 2.34339Z" fill="url(#paint0_linear_20551_340072)"/>
<path d="M25.5119 23.2756L23.0371 17.3476L21.0075 12.6836C18.5009 14.7833 15.5948 16.365 12.4605 17.3354C9.32622 18.3059 6.02726 18.6455 2.7582 18.3341L2.2775 19.4792L0.692923 23.28C0.504715 23.6553 0.393641 24.0638 0.366135 24.4819C0.33863 24.8999 0.395239 25.3193 0.532686 25.7155C0.532686 25.7552 0.563846 25.7904 0.577199 25.8256C0.575738 25.8358 0.575738 25.8462 0.577199 25.8565C0.614598 25.9422 0.659265 26.0247 0.710728 26.1031V26.1339L0.777494 26.2308V26.2528C0.802826 26.2916 0.831098 26.3284 0.862065 26.3629L0.942184 26.451V26.4774C1.00895 26.5435 1.07571 26.6096 1.14693 26.6712H1.17364L1.26711 26.7461C1.30534 26.7765 1.34548 26.8044 1.38729 26.8298C1.41936 26.8535 1.45364 26.8741 1.48966 26.8914L1.52082 26.9134C1.6061 26.9604 1.69376 27.003 1.78343 27.0412H1.81904L1.93031 27.0852H1.96147L2.09945 27.1337H2.13061L2.25079 27.1645H2.29085L2.44218 27.1953L2.59352 27.2173H2.63803H2.76266H2.79827H2.9585H3.35019H3.51043H3.56385H3.69293H3.73744L3.90657 27.1865H3.95108L4.08907 27.1557H4.14248L4.31162 27.1072L4.48076 27.0544H4.53417L4.6766 27.0015H4.72111L4.89916 26.9267H4.94367L5.0861 26.8606L5.13506 26.8342L5.31755 26.7373L11.9273 23.2404C12.2491 23.0708 12.6089 22.9845 12.9733 22.9893C13.3141 22.9932 13.6487 23.0794 13.9481 23.2404L14.0549 23.2932L20.7315 26.7769L20.914 26.8738L20.9674 26.9002L21.1098 26.9663H21.1499L21.3324 27.0412H21.3724L21.5149 27.094H21.5683L21.7419 27.1469L21.911 27.1953H21.9644L22.1024 27.2261H22.1469L22.3161 27.257H22.3606H22.4941H22.5431H22.7078H23.095C23.1484 27.257 23.2018 27.257 23.2508 27.257H23.2908H23.4155H23.46L23.6113 27.2349L23.7627 27.2041H23.8027L23.9229 27.1733H23.9541L24.0965 27.1248H24.1232L24.2345 27.0808H24.2701C24.3602 27.0436 24.4479 27.0009 24.5327 26.9531C24.5447 26.9483 24.5554 26.9408 24.5638 26.9311C24.6004 26.9148 24.6348 26.8941 24.6662 26.8694H24.6929L24.773 26.8122L24.8087 26.7857L24.9066 26.7109H24.9333C25.0045 26.6492 25.0713 26.5831 25.138 26.5171L25.1603 26.4907C25.1879 26.4634 25.2132 26.4339 25.2359 26.4026L25.325 26.2925V26.2704L25.3917 26.1735V26.1427C25.4407 26.0634 25.4852 25.9842 25.5297 25.8961C25.5297 25.8961 25.5297 25.8961 25.5297 25.8653C25.5297 25.8344 25.5609 25.7948 25.5787 25.7551C25.7375 25.3588 25.8135 24.9348 25.802 24.5086C25.7906 24.0824 25.6919 23.663 25.5119 23.2756Z" fill="url(#paint1_linear_20551_340072)"/>
<path d="M21.0088 12.6854L20.0919 10.5758L18.3916 6.74414C14.7239 9.0835 10.4893 10.4067 6.12898 10.5758L4.53105 14.2664L3.78328 15.9709L3.18684 17.3494L3.13788 17.4683L2.77734 18.3491C6.04442 18.6563 9.34057 18.3134 12.4717 17.3407C15.6028 16.368 18.5055 14.7851 21.0088 12.6854Z" fill="url(#paint2_linear_20551_340072)"/>
<path d="M40.5843 8.01562H43.433L47.884 21.576H45.3113L43.2238 14.3576C42.7787 12.9263 42.387 11.376 41.9819 9.8918H41.8974C41.5235 11.3892 41.1184 12.9263 40.6822 14.3576L38.5813 21.576H36.0977L40.5843 8.01562ZM38.7594 16.0136H45.2089V17.8986H38.7594V16.0136Z" fill="#555656"/>
<path d="M48.42 8.27989C48.3931 7.98284 48.4576 7.68466 48.6049 7.42447C48.7522 7.16428 48.9756 6.95421 49.2457 6.8218C49.5157 6.68939 49.82 6.64082 50.1184 6.68247C50.4169 6.72411 50.6957 6.85402 50.9183 7.05517C51.1408 7.25632 51.2967 7.51931 51.3656 7.80967C51.4345 8.10003 51.4131 8.4042 51.3042 8.68231C51.1953 8.96042 51.004 9.19949 50.7554 9.36817C50.5069 9.53685 50.2126 9.62726 49.9111 9.62757C49.7223 9.64269 49.5323 9.61918 49.3531 9.55848C49.1738 9.49779 49.0091 9.40122 48.8692 9.27478C48.7293 9.14835 48.6172 8.99476 48.54 8.8236C48.4627 8.65243 48.4219 8.46735 48.42 8.27989ZM48.696 11.4113H51.1085V21.5981H48.696V11.4113Z" fill="#555656"/>
<path d="M53.4922 11.3886H55.4684L55.6554 13.2075H55.7222C56.4566 11.8862 57.5426 11.1419 58.6465 11.1419C59.0461 11.1221 59.445 11.1929 59.8127 11.3489L59.3943 13.4233C59.0521 13.3132 58.6947 13.2568 58.3349 13.2559C57.5159 13.2559 56.5278 13.8108 55.9047 15.3611V21.5754H53.4922V11.3886Z" fill="#555656"/>
<path d="M66.9862 8.01562H69.8393L74.2904 21.576H71.7488L69.6568 14.3576C69.2117 12.9263 68.82 11.376 68.4194 9.8918H68.3215C67.9432 11.3892 67.5426 12.9263 67.1064 14.3576L65.001 21.576H62.5352L66.9862 8.01562ZM65.1613 16.0136H71.6153V17.8986H65.1613V16.0136Z" fill="#555656"/>
<path d="M75.1144 11.3897H77.0951L77.2776 12.4775H77.3443C78.1944 11.6895 79.2971 11.2219 80.4601 11.1562C83.0328 11.1562 84.5061 13.1954 84.5061 16.34C84.5061 19.8192 82.4052 21.8363 80.1173 21.8363C79.1191 21.7979 78.1694 21.4001 77.4467 20.7177L77.5224 22.4089V25.6195H75.1055L75.1144 11.3897ZM82.0135 16.3488C82.0135 14.3184 81.3414 13.1161 79.788 13.1161C79.0446 13.1161 78.3369 13.4905 77.5624 14.2612V19.0045C78.1249 19.5215 78.8561 19.8215 79.6233 19.8501C80.9675 19.8501 82.0135 18.6565 82.0135 16.3488Z" fill="#555656"/>
<path d="M86.2422 11.3897H88.2184L88.4054 12.4775H88.4721C89.3218 11.6889 90.4248 11.2212 91.5879 11.1562C94.1606 11.1562 95.6339 13.1954 95.6339 16.34C95.6339 19.8192 93.5285 21.8363 91.2407 21.8363C90.2506 21.791 89.3103 21.3938 88.5923 20.7177L88.668 22.4089V25.6195H86.2555L86.2422 11.3897ZM93.1413 16.3488C93.1413 14.3184 92.4692 13.1161 90.9158 13.1161C90.168 13.1161 89.4647 13.4905 88.668 14.2612V19.0045C89.2324 19.5211 89.9649 19.821 90.7333 19.8501C92.0908 19.8501 93.1413 18.6565 93.1413 16.3488Z" fill="#555656"/>
<path d="M97.2539 18.9555V6.92773H99.6664V19.0788C99.6664 19.6646 99.9334 19.8716 100.187 19.8716C100.313 19.8745 100.439 19.8611 100.561 19.8319L100.864 21.6156C100.457 21.7641 100.024 21.8344 99.5907 21.8226C97.8726 21.8226 97.2539 20.726 97.2539 18.9555Z" fill="#555656"/>
<path d="M101.555 16.4892C101.555 13.1817 103.874 11.1426 106.295 11.1426C109.077 11.1426 110.546 13.1333 110.546 15.9872C110.549 16.3758 110.513 16.7638 110.439 17.1455H103.932C104.132 18.9556 105.302 19.9817 106.963 19.9817C107.814 19.9701 108.645 19.7146 109.353 19.2462L110.172 20.7304C109.132 21.4321 107.906 21.815 106.647 21.8315C103.78 21.8227 101.555 19.8496 101.555 16.4892ZM108.458 15.5115C108.458 13.9436 107.755 12.9923 106.348 12.9923C105.147 12.9923 104.092 13.8732 103.883 15.5115H108.458Z" fill="#555656"/>
<path d="M112 16.5393C112 13.0647 114.142 11 116.786 11C117.351 11.0044 117.91 11.1259 118.427 11.357C118.945 11.5882 119.411 11.9241 119.796 12.3443L118.805 13.5577C118.555 13.2735 118.25 13.0451 117.909 12.8867C117.568 12.7283 117.198 12.6434 116.823 12.6373C115.126 12.6373 113.904 14.0988 113.904 16.4807C113.904 18.8626 115.028 20.3655 116.779 20.3655C117.207 20.3588 117.627 20.2576 118.013 20.0689C118.398 19.8802 118.738 19.6085 119.009 19.2728L120 20.4551C119.602 20.9477 119.099 21.3425 118.53 21.6099C117.96 21.8773 117.338 22.0104 116.711 21.9994C114.084 22.0028 112 20.0484 112 16.5393Z" fill="#555656"/>
<path d="M120.489 18.8508C120.489 16.6707 122.314 15.5344 126.538 15.0852C126.506 13.993 126.061 13.0813 124.668 13.0813C123.631 13.1463 122.632 13.4922 121.779 14.0811L120.889 12.4912C122.144 11.6667 123.608 11.2088 125.113 11.1699C127.686 11.1699 128.95 12.7378 128.95 15.5741V21.6034H126.974L126.791 20.4715H126.72C125.859 21.2967 124.726 21.7862 123.529 21.85C123.124 21.8729 122.719 21.8111 122.341 21.6686C121.962 21.5261 121.618 21.3061 121.331 21.023C121.044 20.74 120.821 20.4002 120.675 20.0258C120.53 19.6515 120.467 19.2511 120.489 18.8508ZM126.538 18.8508V16.5606C123.747 16.9085 122.817 17.6308 122.817 18.6614C122.817 19.5422 123.435 19.9518 124.299 19.9518C125.162 19.9518 125.776 19.5422 126.538 18.8508Z" fill="#555656"/>
<path d="M131.164 11.3905H133.14L133.323 13.2094H133.394C134.124 11.8882 135.215 11.1439 136.318 11.1439C136.716 11.1241 137.114 11.1949 137.48 11.3509L137.062 13.4252C136.721 13.3151 136.365 13.2587 136.007 13.2579C135.183 13.2579 134.195 13.8128 133.577 15.3631V21.5773H131.164V11.3905Z" fill="#555656"/>
<path d="M138.644 18.1409V13.2964H137.18V11.5083L138.769 11.3982L139.054 8.61914H141.057V11.3982H143.683V13.2964H141.057V18.1409C141.057 19.3389 141.528 19.929 142.516 19.929C142.885 19.9115 143.247 19.8326 143.589 19.6956L143.999 21.4573C143.324 21.6942 142.614 21.8206 141.898 21.8316C139.525 21.8228 138.644 20.3386 138.644 18.1409Z" fill="#555656"/>
<defs>
<linearGradient id="paint0_linear_20551_340072" x1="4.68177" y1="11.852" x2="26.9022" y2="-6.51053" gradientUnits="userSpaceOnUse">
<stop stop-color="#319DA0"/>
<stop offset="1" stop-color="#25F5A8"/>
</linearGradient>
<linearGradient id="paint1_linear_20551_340072" x1="3.93328" y1="1.65997" x2="21.7851" y2="47.4161" gradientUnits="userSpaceOnUse">
<stop offset="0.17" stop-color="#439A97"/>
<stop offset="0.29" stop-color="#5CAEA7"/>
<stop offset="0.47" stop-color="#7CC8BC"/>
<stop offset="0.62" stop-color="#90D8C9"/>
<stop offset="0.72" stop-color="#97DECE"/>
</linearGradient>
<linearGradient id="paint2_linear_20551_340072" x1="7.91829" y1="-1.19657" x2="15.5397" y2="31.5139" gradientUnits="userSpaceOnUse">
<stop offset="0.32" stop-color="#10A19D"/>
<stop offset="0.37" stop-color="#21ABAB"/>
<stop offset="0.44" stop-color="#32B5BA"/>
<stop offset="0.53" stop-color="#3DBDC4"/>
<stop offset="0.65" stop-color="#44C1C9"/>
<stop offset="1" stop-color="#46C2CB"/>
</linearGradient>
</defs>
</svg>
