  <svg
      width="46"
      height="46"
      viewBox="0 0 46 46"
      fill="none"
      xmlns="http://www.w3.org/2000/svg"
    >
      <path
        fillRule="evenodd"
        clipRule="evenodd"
        d="M26.8385 3.83203H11.5052C10.4885 3.83203 9.51352 4.2359 8.79463 4.95479C8.07574 5.67368 7.67188 6.6487 7.67188 7.66536V38.332C7.67188 39.3487 8.07574 40.3237 8.79463 41.0426C9.51352 41.7615 10.4885 42.1654 11.5052 42.1654H34.5052C35.5219 42.1654 36.4969 41.7615 37.2158 41.0426C37.9347 40.3237 38.3385 39.3487 38.3385 38.332V15.332L26.8385 3.83203ZM26.8385 17.2487H24.9219V7.66536L34.5052 17.2487H26.8385Z"
        fill="#FF4A4A"
      />
      <path
        d="M13.7604 35.3139V28.2762H14.9467V29.1226H15.0167C15.0789 28.9982 15.1666 28.866 15.2799 28.726C15.3932 28.5838 15.5465 28.4628 15.7398 28.3628C15.9331 28.2606 16.1797 28.2095 16.4796 28.2095C16.875 28.2095 17.2315 28.3106 17.5492 28.5128C17.8691 28.7127 18.1224 29.0093 18.309 29.4025C18.4978 29.7935 18.5922 30.2733 18.5922 30.842C18.5922 31.4041 18.5 31.8817 18.3156 32.2749C18.1313 32.6681 17.8802 32.968 17.5626 33.1746C17.2449 33.3812 16.885 33.4845 16.4829 33.4845C16.1897 33.4845 15.9464 33.4356 15.7531 33.3379C15.5599 33.2401 15.4043 33.1224 15.2866 32.9847C15.1711 32.8447 15.0811 32.7125 15.0167 32.5881H14.9667V35.3139H13.7604ZM14.9434 30.8353C14.9434 31.1664 14.99 31.4563 15.0833 31.7051C15.1789 31.9539 15.3155 32.1483 15.4932 32.2882C15.6732 32.426 15.8909 32.4948 16.1463 32.4948C16.4129 32.4948 16.6362 32.4237 16.8161 32.2816C16.9961 32.1372 17.1316 31.9405 17.2227 31.6917C17.316 31.4407 17.3626 31.1552 17.3626 30.8353C17.3626 30.5177 17.3171 30.2355 17.226 29.9889C17.1349 29.7424 16.9994 29.5491 16.8195 29.4091C16.6395 29.2692 16.4151 29.1992 16.1463 29.1992C15.8886 29.1992 15.6698 29.267 15.4899 29.4025C15.3099 29.538 15.1733 29.7279 15.08 29.9723C14.9889 30.2167 14.9434 30.5043 14.9434 30.8353ZM21.5246 33.4845C21.1225 33.4845 20.7626 33.3812 20.445 33.1746C20.1273 32.968 19.8763 32.6681 19.6919 32.2749C19.5075 31.8817 19.4153 31.4041 19.4153 30.842C19.4153 30.2733 19.5086 29.7935 19.6952 29.4025C19.884 29.0093 20.1384 28.7127 20.4583 28.5128C20.7782 28.3106 21.1347 28.2095 21.528 28.2095C21.8279 28.2095 22.0744 28.2606 22.2677 28.3628C22.461 28.4628 22.6143 28.5838 22.7276 28.726C22.8409 28.866 22.9286 28.9982 22.9908 29.1226H23.0408V26.57H24.2504V33.3945H23.0641V32.5881H22.9908C22.9286 32.7125 22.8386 32.8447 22.7209 32.9847C22.6032 33.1224 22.4477 33.2401 22.2544 33.3379C22.0611 33.4356 21.8179 33.4845 21.5246 33.4845ZM21.8612 32.4948C22.1167 32.4948 22.3344 32.426 22.5143 32.2882C22.6943 32.1483 22.8309 31.9539 22.9242 31.7051C23.0175 31.4563 23.0641 31.1664 23.0641 30.8353C23.0641 30.5043 23.0175 30.2167 22.9242 29.9723C22.8331 29.7279 22.6976 29.538 22.5176 29.4025C22.3399 29.267 22.1211 29.1992 21.8612 29.1992C21.5924 29.1992 21.368 29.2692 21.1881 29.4091C21.0081 29.5491 20.8726 29.7424 20.7815 29.9889C20.6904 30.2355 20.6449 30.5177 20.6449 30.8353C20.6449 31.1552 20.6904 31.4407 20.7815 31.6917C20.8748 31.9405 21.0115 32.1372 21.1914 32.2816C21.3736 32.4237 21.5968 32.4948 21.8612 32.4948ZM28.1284 28.2762V29.2092H25.1026V28.2762H28.1284ZM25.8591 33.3945V27.793C25.8591 27.4486 25.9302 27.1621 26.0723 26.9333C26.2167 26.7044 26.41 26.5334 26.6522 26.4201C26.8943 26.3068 27.1631 26.2501 27.4586 26.2501C27.6674 26.2501 27.8529 26.2668 28.0151 26.3001C28.1772 26.3334 28.2972 26.3634 28.3749 26.3901L28.135 27.3231C28.0839 27.3076 28.0195 27.292 27.9417 27.2765C27.864 27.2587 27.7774 27.2498 27.6818 27.2498C27.4575 27.2498 27.2986 27.3042 27.2053 27.4131C27.1142 27.5197 27.0687 27.673 27.0687 27.873V33.3945H25.8591Z"
        fill="white"
      />
    </svg>