<svg
      width="46"
      height="46"
      viewBox="0 0 46 46"
      fill="none"
      xmlns="http://www.w3.org/2000/svg"
    >
      <path
        fillRule="evenodd"
        clipRule="evenodd"
        d="M26.8307 3.83594H11.4974C10.4807 3.83594 9.50571 4.23981 8.78682 4.95869C8.06793 5.67758 7.66406 6.65261 7.66406 7.66927V38.3359C7.66406 39.3526 8.06793 40.3276 8.78682 41.0465C9.50571 41.7654 10.4807 42.1693 11.4974 42.1693H34.4974C35.5141 42.1693 36.4891 41.7654 37.208 41.0465C37.9269 40.3276 38.3307 39.3526 38.3307 38.3359V15.3359L26.8307 3.83594ZM26.8307 17.2526H24.9141V7.66927L34.4974 17.2526H26.8307Z"
        fill='#229A16'
      />
      <path
        d="M16.9685 28.6907L18.0234 30.6203L19.0954 28.6907H20.3989L18.8232 31.3043L20.4261 33.918H19.1295L18.0234 32.036L16.9276 33.918H15.6208L17.2135 31.3043L15.6616 28.6907H16.9685ZM22.5837 26.9483V33.918H21.3517V26.9483H22.5837ZM27.982 30.0724L26.8589 30.1949C26.8272 30.0815 26.7716 29.9748 26.6922 29.875C26.615 29.7752 26.5107 29.6946 26.3791 29.6334C26.2475 29.5721 26.0864 29.5415 25.8958 29.5415C25.6395 29.5415 25.4239 29.5971 25.2492 29.7082C25.0768 29.8194 24.9917 29.9635 24.994 30.1404C24.9917 30.2925 25.0473 30.4161 25.1607 30.5114C25.2764 30.6067 25.467 30.685 25.7325 30.7462L26.6241 30.9368C27.1187 31.0434 27.4862 31.2124 27.7267 31.4439C27.9695 31.6753 28.092 31.9782 28.0943 32.3525C28.092 32.6815 27.9956 32.9719 27.805 33.2237C27.6167 33.4733 27.3547 33.6684 27.0189 33.8091C26.6831 33.9497 26.2974 34.0201 25.8618 34.0201C25.222 34.0201 24.707 33.8862 24.3168 33.6185C23.9265 33.3485 23.694 32.973 23.6191 32.492L24.8204 32.3763C24.8749 32.6123 24.9906 32.7904 25.1675 32.9106C25.3445 33.0309 25.5748 33.091 25.8584 33.091C26.1511 33.091 26.3859 33.0309 26.5628 32.9106C26.7421 32.7904 26.8317 32.6418 26.8317 32.4648C26.8317 32.3151 26.7738 32.1914 26.6581 32.0939C26.5447 31.9963 26.3677 31.9214 26.1272 31.8693L25.2356 31.6821C24.7342 31.5777 24.3633 31.4019 24.1228 31.1546C23.8823 30.905 23.7632 30.5897 23.7654 30.2085C23.7632 29.8863 23.8505 29.6073 24.0275 29.3713C24.2067 29.1331 24.4551 28.9493 24.7728 28.82C25.0927 28.6884 25.4614 28.6226 25.8788 28.6226C26.4914 28.6226 26.9735 28.7531 27.3252 29.014C27.6791 29.2749 27.898 29.6277 27.982 30.0724Z"
        fill="white"
      />
    </svg>