<svg width="17" height="17" viewBox="0 0 17 17" fill="none" xmlns="http://www.w3.org/2000/svg">
<path d="M10.8269 7.80769C11.087 7.80769 11.3365 7.70436 11.5204 7.52043C11.7043 7.3365 11.8076 7.08704 11.8076 6.82692C11.8076 6.56681 11.7043 6.31734 11.5204 6.13341C11.3365 5.94948 11.087 5.84615 10.8269 5.84615C10.5668 5.84615 10.3173 5.94948 10.1334 6.13341C9.94944 6.31734 9.84611 6.56681 9.84611 6.82692C9.84611 7.08704 9.94944 7.3365 10.1334 7.52043C10.3173 7.70436 10.5668 7.80769 10.8269 7.80769ZM7.23072 6.82692C7.23072 7.08704 7.12739 7.3365 6.94346 7.52043C6.75953 7.70436 6.51007 7.80769 6.24995 7.80769C5.98984 7.80769 5.74037 7.70436 5.55644 7.52043C5.37251 7.3365 5.26918 7.08704 5.26918 6.82692C5.26918 6.56681 5.37251 6.31734 5.55644 6.13341C5.74037 5.94948 5.98984 5.84615 6.24995 5.84615C6.51007 5.84615 6.75953 5.94948 6.94346 6.13341C7.12739 6.31734 7.23072 6.56681 7.23072 6.82692ZM4.8298 10.5081C4.93698 10.4351 5.06868 10.4076 5.19612 10.4315C5.32355 10.4554 5.43633 10.5287 5.5098 10.6356L5.51568 10.6434L5.54445 10.682C5.57191 10.7173 5.61638 10.7709 5.67718 10.8376C5.79945 10.9703 5.9858 11.1515 6.23818 11.3326C6.74034 11.6942 7.50011 12.0577 8.53841 12.0577C9.57672 12.0577 10.3365 11.6942 10.8386 11.3326C11.091 11.1515 11.278 10.9703 11.3996 10.8376C11.4567 10.7755 11.5109 10.7107 11.5618 10.6434L11.5664 10.6369C11.6396 10.5294 11.7526 10.4554 11.8804 10.4311C12.0083 10.4069 12.1405 10.4345 12.248 10.5077C12.3555 10.581 12.4295 10.694 12.4537 10.8218C12.478 10.9497 12.4504 11.0819 12.3771 11.1894L12.3758 11.19V11.1913L12.3739 11.1933L12.3693 11.1998L12.3549 11.2201C12.2823 11.3172 12.2048 11.4106 12.1228 11.5C11.9077 11.7333 11.6693 11.944 11.4114 12.129C10.7772 12.5847 9.82126 13.0385 8.53841 13.0385C7.25557 13.0385 6.29965 12.5847 5.66541 12.129C5.40752 11.944 5.16915 11.7333 4.95403 11.5C4.86676 11.4046 4.7847 11.3047 4.70818 11.2005L4.70295 11.194L4.70165 11.1913L4.70099 11.19L4.70034 11.1894C4.62716 11.0819 4.59969 10.9497 4.62397 10.8219C4.64825 10.6941 4.72229 10.5813 4.8298 10.5081ZM8.53841 0.615383C4.20538 0.615383 0.692261 4.1285 0.692261 8.46154C0.692261 12.7946 4.20538 16.3077 8.53841 16.3077C12.8715 16.3077 16.3846 12.7946 16.3846 8.46154C16.3846 4.1285 12.8715 0.615383 8.53841 0.615383ZM1.67303 8.46154C1.67303 4.66988 4.74676 1.59615 8.53841 1.59615C12.3301 1.59615 15.4038 4.66988 15.4038 8.46154C15.4038 12.2532 12.3301 15.3269 8.53841 15.3269C4.74676 15.3269 1.67303 12.2532 1.67303 8.46154Z" fill="#4E4B66"/>
</svg>
